<?xml version="1.0" encoding="UTF-8" standalone="no"?>
<!-- Creator: CorelDRAW 2021 (64-Bit) -->

<svg
   xml:space="preserve"
   width="147.12775mm"
   height="100.89246mm"
   version="1.1"
   style="clip-rule:evenodd;fill-rule:evenodd;image-rendering:optimizeQuality;shape-rendering:geometricPrecision;text-rendering:geometricPrecision"
   viewBox="0 0 15766.44 10811.793"
   id="svg98"
   sodipodi:docname="Letter_Z_in_the_colours_of_the_Russian_Ribbon_of_Saint_George.svg"
   inkscape:version="1.2.2 (732a01da63, 2022-12-09)"
   xmlns:inkscape="http://www.inkscape.org/namespaces/inkscape"
   xmlns:sodipodi="http://sodipodi.sourceforge.net/DTD/sodipodi-0.dtd"
   xmlns="http://www.w3.org/2000/svg"
   xmlns:svg="http://www.w3.org/2000/svg"><sodipodi:namedview
   id="namedview100"
   pagecolor="#ffffff"
   bordercolor="#000000"
   borderopacity="0.25"
   inkscape:showpageshadow="2"
   inkscape:pageopacity="0.0"
   inkscape:pagecheckerboard="0"
   inkscape:deskcolor="#d1d1d1"
   inkscape:document-units="mm"
   showgrid="false"
   inkscape:zoom="1.5012011"
   inkscape:cx="249.46691"
   inkscape:cy="220.49012"
   inkscape:window-width="1824"
   inkscape:window-height="963"
   inkscape:window-x="-8"
   inkscape:window-y="-8"
   inkscape:window-maximized="1"
   inkscape:current-layer="Слой_x0020_1" />
 <defs
   id="defs54">
  <style
   type="text/css"
   id="style52">
   <![CDATA[
    .fil3 {fill:none}
    .fil1 {fill:black}
    .fil5 {fill:black}
    .fil4 {fill:#613506}
    .fil2 {fill:#F0870E}
    .fil0 {fill:black;fill-rule:nonzero}
   ]]>
  </style>
 </defs>
 <g
   id="Слой_x0020_1"
   inkscape:label="Слой 1"
   inkscape:groupmode="layer"
   transform="translate(-825.94,-0.00589652)">
  <metadata
   id="CorelCorpID_0Corel-Layer" />
  
  <path
   class="fil1"
   d="m 825.94,1181.92 c 0,0 3437.25,-1066.83 7182.07,-1173.37 2592.77,-73.75 5332.97,312.77 7182.02,1832.38 l -17.49,45.79 -116.92,286.92 c 0,0 -2013.42,-1898.36 -7043.9,-1742.44 -1897.33,58.79 -4239.4,379.44 -7096.16,1172.55 l -81.4,-379.47 z"
   id="path59" />
  <path
   class="fil1"
   d="m 825.94,1181.92 c 0,0 3437.25,-1066.83 7182.07,-1173.37 2592.77,-73.75 5332.97,312.77 7182.02,1832.38 l -17.49,45.79 c -232.64,570.87 -443.74,1161.35 -664.4,1738.94 l -0.03,0.06 -0.12,-0.06 c -5.86,-0.51 -3478.61,-305.46 -8369.93,4316.9 7741.95,-1373.5 10454.32,969.94 10454.32,969.94 -482.56,119.6 -939.78,254.04 -1433.01,387.36 221.33,477.93 32.76,70.78 664.63,1435.2 C 13643.5,9717.04 12229.71,9777.27 10008.12,9737.32 7786.54,9697.37 3335.61,10811.8 3335.61,10811.8 v -85.31 c -511.67,-438.61 -978.32,-947.17 -1495.13,-1399.3 0,0 4088.45,-5232.89 8735.22,-7002.43 23.91,3.17 -1788.4,-139.9 -2563.98,-115.88 -1816.74,56.24 -4041.8,353.44 -6735.87,1074.36 C 1128.61,2596.92 981.4,1910.6 834.16,1224.29 l -8.22,-42.36 z"
   id="path61" />
  <path
   class="fil2"
   d="M 917.11,1577.79 C 1484.69,1410.36 4620.52,528.11 8008.01,431.8 c 774.84,-22.03 1573.29,-2.44 2357.03,83.36 1502.44,164.53 2967.72,547.53 4115.81,1250.21 207.35,126.93 396.07,254.33 574.77,408.27 l -130.47,360.58 C 14407.39,2142.26 12274.99,751.16 8011.72,883.21 c -1875.64,58.1 -4186.04,344.1 -6998.66,1116.85 -4.05,1.11 -7.99,1.98 -11.91,2.73 l -90.66,-422.68 c 2.15,-0.89 4.37,-1.67 6.61,-2.33 z"
   id="path63" />
  <path
   class="fil1"
   d="M 1001.59,2004.81 C 1746.64,1789.8 4761.57,975.78 8008.02,883.45 c 762.17,-21.66 1544.95,0.2 2316.29,82.63 1723.77,184.25 3386,662.1 4600.84,1568.14 l -131.27,343.64 c -706.98,-490.96 -2871.2,-1707.24 -6782.16,-1543 -1857.15,78 -4142.39,339.18 -6918.93,1095.1 l -91.21,-425.14 z"
   id="path65" />
  <path
   class="fil2"
   d="m 1092.65,2429.32 c 875.9,-247.82 3788.37,-1006.42 6915.36,-1095.33 729.12,-20.7 1500.2,-13.55 2239.04,60.53 1696.5,170.04 3321.25,623.55 4546.82,1483.35 l -133.15,348.4 C 13859.99,2690.59 11791.91,1639.55 8011.71,1756.64 6174.26,1813.56 3919.43,2116.88 1184.11,2855.68 l -91.46,-426.35 z"
   id="path67" />
  <path
   class="fil1"
   d="m 1178.37,2828.78 c 967.7,-269.34 3797.66,-985.12 6829.64,-1071.32 757.8,-21.54 1539.28,-2.3 2306.4,79.01 1607,170.4 3158.34,598.08 4347.52,1386.64 l -153.8,402.54 -0.03,0.06 C 13613.72,3053.26 11572.19,2098.66 8011.71,2208.86 6194.97,2265.1 3969.91,2562.3 1275.84,3283.22 l -97.47,-454.45 z"
   id="path69" />
  <path
   class="fil1"
   d="m 14508.14,3625.66 c 0,0 -3474.62,-309.38 -8370.08,4316.9 l -2781.74,2801.67 -279.15,-239.28 c 0,0 5287.24,-6648.67 10679.76,-7292.56 l 402.74,148.04 z"
   id="path71" />
  <path
   class="fil2"
   d="m 3077.17,10504.95 -293.9,-285.76 c 0,0 4965.38,-6339.12 10289.13,-7295.15 l 684.48,288.35 C 8364.4,3856.35 3077.18,10504.95 3077.18,10504.95 Z"
   id="path73" />
  <path
   class="fil1"
   d="M 2793.71,10207.77 2462.35,9897.71 C 5244.79,6710.05 8390.96,3777.4 12241.48,2656.35 c 287.8,79.39 551.39,165.01 791.94,253.37 l 38.97,14.32 -36.67,7.17 C 7725.96,3909.62 2793.7,10207.77 2793.7,10207.77 Z"
   id="path75" />
  <path
   class="fil2"
   d="m 2457.76,9903.36 -298.82,-286.34 c 0,0 4405.42,-5628.84 9287.57,-7149.08 283.14,56.81 547.88,120.22 794.95,188.4 -3850.49,1121.04 -7001.27,4059.37 -9783.7,7247.01 z"
   id="path77" />
  <path
   class="fil1"
   d="m 2164.57,9610.73 -324.1,-283.54 c 0,0 4088.45,-5232.89 8735.22,-7002.43 307.51,40.01 597.73,88.5 870.78,143.19 -4882.14,1520.27 -9281.9,7142.78 -9281.9,7142.78 z m 3999,-3459.8 -1752.02,1639.69 C 4978.64,7218.2 5561.85,6667.99 6163.57,6150.93 Z"
   id="path79" />
  <path
   class="fil3"
   d="M 15293.66,9589.85 C 13986.03,9100.27 12453.36,8864.87 10958.77,8847.99 7890.2,8813.3 4463.96,9628.67 4463.96,9628.67 l -544.08,548 c 1809.41,-424.73 4427.6,-915.11 6957.15,-892.18 1682.32,15.24 3325.45,276.79 4665.44,842.61 l -248.81,-537.27 z"
   id="path81" />
  <path
   class="fil4"
   d="m 12687.49,3415.89 -480.18,-288.64 c 274.7,-78.52 550.99,-144.94 828.41,-196.04 l 1.52,-0.78 35.15,-6.39 31.38,11.8 c 241.55,90.74 458.83,184.43 652.99,276.58 -357.13,42.65 -713.76,112.32 -1068.45,203.96 l -0.83,-0.49 z m -982.12,-590.39 -476.96,-286.71 c 72.57,-24.45 145.26,-48.18 218.05,-70.84 283.12,56.74 547.91,120.26 794.89,188.42 -180.19,52.47 -358.84,108.87 -535.99,169.13 z m -460.3,-396.16 v -0.03 l 6.59,1.23 z m 2513.35,783.88 15.27,7.25 -0.6,0.8 -14.67,-8.06 z"
   id="path83" />
  <path
   class="fil5"
   d="m 16592.38,8912.5 c 0,0 -2712.36,-2343.45 -10454.32,-969.94 l -555.04,559.01 18.7,9.98 c 0,0 6585.47,-1538.74 10472.55,529.36 l 518.11,-128.4 z"
   id="path85" />
  <path
   class="fil2"
   d="m 16109.61,9043 -13.46,-7.53 -21.88,5.43 C 12187.19,6972.8 5601.72,8511.54 5601.72,8511.54 l -18.7,-9.98 -538.79,542.7 c 2913.18,-592.21 7184.64,-1183.17 10433.41,169.56 l 631.98,-170.83 z"
   id="path87" />
  <path
   class="fil5"
   d="m 15511.28,9204.74 c -1346.37,-568.02 -2975.64,-793.95 -4552.51,-811.78 -3068.6,-34.72 -5914.54,651.31 -5914.54,651.31 l -580.27,584.41 c 2933.7,-688.59 7529.54,-1319.42 10819.47,-60.94 l -124.06,-267.87 351.92,-95.12 z"
   id="path89" />
  <path
   class="fil2"
   d="m 15283.43,9567.73 c -1307.63,-489.58 -2830.1,-702.89 -4324.66,-719.74 -1125.53,-12.71 -2284.2,70.44 -3319.24,204.25 -1786.77,230.99 -3175.57,576.43 -3175.57,576.43 l -544.08,548 c 1809.41,-424.73 4427.6,-915.11 6957.15,-892.18 1682.32,15.24 3325.45,276.79 4665.44,842.61 l -259.04,-559.38 z"
   id="path91" />
  <path
   class="fil5"
   d="m 3335.61,10726.49 v 85.31 c 0,0 4450.93,-1114.43 6672.51,-1074.48 2221.58,39.95 3635.38,-20.28 5815.88,997.74 l -281.5,-607.85 -37.73,-15.9 -3.4,-1.45 -52.49,-21.66 c -1322.51,-538.93 -2928.53,-788.8 -4571.85,-803.69 -2529.56,-22.93 -5147.75,467.45 -6957.15,892.18 l 63.62,-64.06 171.97,-173.24 -344.84,73.14 -475.03,713.97 z"
   id="path93" />
  <path
   class="fil4"
   d="m 5855.58,8456.96 -308.18,478.53 c -321.2,64.92 -503.18,108.78 -503.18,108.78 l -580.27,584.41 c 237.35,-55.71 485.75,-111.02 743.3,-165.01 l -320.79,498.14 -966.59,214.87 1663.14,-1675.11 z"
   id="path95" />
 </g>
</svg>
